<?xml version="1.0" encoding="UTF-8"?>
<svg width="800" height="800" viewBox="0 0 800 800" xmlns="http://www.w3.org/2000/svg">
  <!-- Cuerpo principal de la camisa -->
  <path class="shirt-body" d="M200,200 
    C200,200 300,150 400,150 
    C500,150 600,200 600,200 
    L650,300 L600,350 
    L550,250 L550,650 
    L250,650 L250,250 
    L200,350 L150,300 Z" 
    fill="currentColor"
    stroke="#000000"
    stroke-width="2"/>
  
  <!-- Cuello de la camisa -->
  <path d="M350,150 
    C350,150 400,180 450,150 
    C450,150 400,200 400,200 
    C400,200 350,150 350,150 Z"
    fill="currentColor"
    stroke="#000000"
    stroke-width="2"/>
  
  <!-- Botones -->
  <circle cx="400" cy="250" r="5" fill="#333"/>
  <circle cx="400" cy="300" r="5" fill="#333"/>
  <circle cx="400" cy="350" r="5" fill="#333"/>
  <circle cx="400" cy="400" r="5" fill="#333"/>
  <circle cx="400" cy="450" r="5" fill="#333"/>
  
  <!-- Bolsillo -->
  <path d="M320,250 
    L360,250 
    L360,300 
    L320,300 Z"
    fill="none"
    stroke="#000000"
    stroke-width="2"/>
</svg> 